<svg aria-hidden="true" focusable="false" data-prefix="fad" data-icon="folders" class="svg-inline--fa fa-folders fa-w-20" role="img" xmlns="http://www.w3.org/2000/svg" viewBox="0 0 640 512" width="100%" height="100%" preserveAspectRatio="none"><g class="fa-group"><path class="fa-secondary" fill="currentColor" d="M640 112v224a48 48 0 0 1-48 48H176a48 48 0 0 1-48-48V48a48 48 0 0 1 48-48h160l64 64h192a48 48 0 0 1 48 48z" opacity="0.4"/><path class="fa-primary" fill="currentColor" d="M48 512a48 48 0 0 1-48-48V176a48 48 0 0 1 48-48h48v208a80.09 80.09 0 0 0 80 80h336v48a48 48 0 0 1-48 48z"/></g></svg>